<?xml version="1.0" standalone="no"?>
<!DOCTYPE svg PUBLIC "-//W3C//DTD SVG 20010904//EN"
 "http://www.w3.org/TR/2001/REC-SVG-20010904/DTD/svg10.dtd">
<svg version="1.0" xmlns="http://www.w3.org/2000/svg"
 width="128.000000pt" height="128.000000pt" viewBox="0 0 128.000000 128.000000"
 preserveAspectRatio="xMidYMid meet">

<g transform="translate(0.000000,128.000000) scale(0.100000,-0.100000)"
fill="#000000" stroke="none">
<path d="M977 1173 c-11 -11 4 -23 29 -23 60 0 130 -65 140 -131 4 -21 10 -36
14 -34 12 7 -5 69 -28 107 -29 46 -135 102 -155 81z"/>
<path d="M897 1144 c-14 -15 -6 -21 32 -27 89 -12 164 -77 177 -156 9 -55 13
-66 24 -55 15 15 -12 107 -44 148 -43 57 -164 115 -189 90z"/>
<path d="M810 1097 c0 -10 14 -18 43 -22 60 -10 132 -49 161 -88 29 -37 56
-107 56 -143 0 -13 5 -24 10 -24 18 0 11 79 -11 124 -40 87 -124 150 -214 163
-37 5 -45 3 -45 -10z"/>
<path d="M750 970 c-9 -6 -10 -10 -3 -10 6 0 15 5 18 10 8 12 4 12 -15 0z"/>
<path d="M503 745 c-22 -15 -23 -23 -23 -141 0 -117 1 -124 20 -124 19 0 20 7
20 89 l0 90 48 3 c34 2 47 7 47 18 0 11 -14 16 -50 20 -55 6 -48 19 15 30 49
8 44 24 -10 28 -29 2 -53 -3 -67 -13z"/>
<path d="M928 733 c-15 -16 -18 -39 -18 -136 0 -110 1 -117 20 -117 17 0 20 7
20 40 0 22 5 40 10 40 6 0 46 -18 90 -40 44 -22 89 -40 100 -40 42 0 17 27
-60 65 -44 21 -80 42 -80 45 0 3 32 22 71 40 81 40 100 56 74 66 -11 5 -49 -8
-101 -34 -47 -23 -89 -42 -94 -42 -5 0 -10 30 -12 66 -3 64 -4 66 -20 47z"/>
<path d="M282 684 c3 -14 11 -18 30 -16 31 3 78 -13 78 -27 0 -6 -42 -10 -108
-8 -119 2 -156 -11 -168 -57 -18 -74 29 -99 183 -94 138 4 143 8 143 108 0 85
-16 102 -101 108 -56 4 -61 3 -57 -14z m116 -114 c4 -43 -11 -53 -89 -57 -96
-7 -143 5 -147 37 -6 41 21 51 133 48 98 -3 100 -3 103 -28z"/>
<path d="M683 690 c-34 -14 -43 -42 -43 -130 0 -79 1 -81 23 -78 21 3 22 8 23
81 0 43 5 82 11 88 6 6 26 12 45 14 21 1 34 8 36 19 3 13 -5 16 -35 15 -21 0
-48 -4 -60 -9z"/>
<path d="M820 590 c0 -110 0 -111 23 -108 21 3 22 7 22 108 0 101 -1 105 -22
108 -23 3 -23 2 -23 -108z"/>
<path d="M183 429 c-50 -15 -64 -45 -61 -129 3 -67 5 -75 31 -94 22 -17 46
-22 113 -25 107 -4 150 4 180 34 20 21 24 34 24 90 0 79 -11 102 -55 121 -39
16 -181 18 -232 3z m208 -49 c15 -9 19 -22 19 -70 0 -74 -9 -80 -119 -80 -111
0 -111 0 -111 76 0 58 2 66 23 74 31 12 164 12 188 0z"/>
<path d="M554 429 c-43 -12 -56 -31 -52 -76 4 -50 30 -62 156 -71 88 -6 97 -9
97 -27 0 -19 -8 -20 -125 -25 -122 -5 -125 -6 -128 -28 l-4 -24 140 4 c156 3
182 13 182 70 0 68 -41 88 -174 87 -55 -1 -81 3 -87 12 -14 24 12 39 68 39 51
0 54 2 51 23 -3 19 -10 22 -48 24 -25 1 -59 -3 -76 -8z"/>
<path d="M892 429 c-38 -11 -58 -45 -48 -83 11 -43 44 -56 155 -63 104 -6 122
-13 101 -38 -10 -12 -39 -15 -130 -15 -99 0 -119 -3 -124 -16 -3 -9 -4 -20 0
-25 9 -15 240 -11 279 5 37 16 52 48 41 91 -9 37 -41 48 -154 53 -77 3 -105 8
-109 19 -8 21 4 27 65 33 49 4 57 8 57 25 0 17 -7 20 -50 22 -27 1 -65 -3 -83
-8z"/>
</g>
</svg>
